<svg width="205" height="65" viewBox="0 0 205 65" fill="none" xmlns="http://www.w3.org/2000/svg">
<g clip-path="url(#clip0_12984_1919)">
<path d="M77.7744 26.0981C78.9676 26.0933 80.1409 26.4074 81.1709 27.0083C81.1751 27.0079 81.1794 27.0079 81.1836 27.0083V26.3276H84.3389V32.522C84.3395 33.4583 84.1336 34.3841 83.7354 35.2319C83.3371 36.0797 82.7558 36.8296 82.0342 37.4282C82.7574 38.0238 83.3398 38.7718 83.7383 39.6187C84.1367 40.4655 84.3416 41.3902 84.3389 42.3257C84.304 44.0361 83.598 45.6644 82.373 46.8618C81.1482 48.0591 79.502 48.7299 77.7871 48.73C76.0721 48.73 74.4251 48.0592 73.2002 46.8618C71.9754 45.6645 71.2692 44.0361 71.2344 42.3257C71.2316 41.3901 71.4374 40.4656 71.8359 39.6187C72.2344 38.7719 72.816 38.0238 73.5391 37.4282C72.52 36.5772 71.7909 35.4316 71.4512 34.1499C71.1115 32.868 71.1782 31.5124 71.6426 30.27C72.107 29.0277 72.9459 27.9594 74.0439 27.2124C75.1421 26.4654 76.4455 26.0758 77.7744 26.0981ZM77.623 38.9585C76.7622 39.0075 75.9525 39.383 75.3604 40.0083C74.7682 40.6336 74.4385 41.4616 74.4385 42.3218C74.4385 43.182 74.7682 44.0099 75.3604 44.6353C75.9525 45.2605 76.7622 45.6361 77.623 45.6851C78.484 45.7339 79.3317 45.4522 79.9912 44.8979C80.6507 44.3437 81.073 43.5583 81.1709 42.7036C81.1886 42.5758 81.1968 42.4469 81.1953 42.3179C81.1966 42.1914 81.1884 42.0643 81.1709 41.939C81.073 41.0844 80.6506 40.2998 79.9912 39.7456C79.3317 39.1913 78.484 38.9096 77.623 38.9585ZM44.4717 26.2085C45.7182 25.9681 47.0081 26.1004 48.1797 26.5884C49.3513 27.0764 50.3525 27.8984 51.0576 28.9517C51.7627 30.005 52.1407 31.2427 52.1436 32.5093C52.1386 33.3629 51.9647 34.2072 51.6318 34.9937C51.2989 35.7801 50.813 36.4934 50.2031 37.0923C49.5933 37.691 48.8706 38.1633 48.0771 38.4829C47.2836 38.8025 46.4348 38.9631 45.5791 38.9546C44.3097 38.9317 43.0749 38.5358 42.0303 37.8159C40.9857 37.096 40.1776 36.084 39.707 34.9077C39.2364 33.7314 39.1251 32.4422 39.3857 31.2026C39.6465 29.9632 40.2681 28.8283 41.1729 27.9399C42.0777 27.0514 43.2251 26.4489 44.4717 26.2085ZM62.6777 29.146C58.6157 29.146 57.9277 30.2861 57.9277 32.4067V38.6255H54.7373V26.3257H57.9277V27.231C59.122 26.3503 60.2893 26.0903 62.6777 26.0903V29.146ZM101.126 26.0903C103.834 26.0903 106.161 27.671 106.161 31.5259V38.6245H102.96V32.0444C102.96 29.6646 101.69 29.1451 100.42 29.145C99.1499 29.145 97.877 29.6371 97.877 31.9927V38.6245H94.6846V26.3257H97.877V27.23C98.7832 26.4654 99.9395 26.06 101.126 26.0903ZM68.2295 38.6167H65.0391V26.3257H68.2295V38.6167ZM91.0254 38.6167H87.835V26.3257H91.0254V38.6167ZM77.5898 29.0737C76.7118 29.1219 75.8865 29.507 75.2861 30.1479C74.6857 30.789 74.3568 31.6369 74.3682 32.5142L74.3789 32.522C74.38 33.3897 74.7134 34.2249 75.3115 34.855C75.9096 35.485 76.7272 35.8623 77.5957 35.9106C78.4642 35.959 79.3187 35.6745 79.9834 35.1147C80.6479 34.5551 81.0729 33.7629 81.1709 32.9009C81.1885 32.7756 81.1967 32.6485 81.1953 32.522C81.1966 32.3947 81.1884 32.2672 81.1709 32.1411C81.0859 31.268 80.6652 30.4617 79.998 29.8901C79.3308 29.3185 78.468 29.0256 77.5898 29.0737ZM45.5791 29.146C44.9101 29.1535 44.2584 29.3583 43.7061 29.7349C43.1536 30.1114 42.7247 30.6431 42.4746 31.2622C42.2247 31.8811 42.1645 32.5601 42.3008 33.2134C42.4371 33.8668 42.7643 34.4659 43.2412 34.9341C43.718 35.4021 44.3235 35.7187 44.9805 35.8442C45.6375 35.9697 46.3172 35.8984 46.9336 35.6392C47.55 35.3798 48.0757 34.9441 48.4443 34.3872C48.8129 33.8303 49.008 33.1766 49.0049 32.5093C48.9914 31.6121 48.6244 30.7558 47.9834 30.1265C47.3424 29.4971 46.4785 29.1452 45.5791 29.146Z" fill="#FF6024"/>
<path d="M7.94684 32.5221C7.94684 30.9294 8.42029 29.3725 9.30732 28.0482C10.1943 26.7239 11.4551 25.6917 12.9302 25.0822C14.4053 24.4727 16.0284 24.3132 17.5943 24.6239C19.1603 24.9347 20.5987 25.7016 21.7276 26.8278C22.8566 27.9541 23.6254 29.389 23.9369 30.9511C24.2484 32.5132 24.0885 34.1324 23.4775 35.6038C22.8665 37.0753 21.8319 38.333 20.5043 39.2179C19.1768 40.1027 17.616 40.575 16.0194 40.575C14.9592 40.5754 13.9093 40.3673 12.9298 39.9628C11.9502 39.5582 11.0601 38.965 10.3105 38.2172C9.56078 37.4693 8.96617 36.5814 8.56061 35.6043C8.15505 34.6271 7.94649 33.5797 7.94684 32.5221ZM16.0194 16.7432C12.6858 16.7436 9.43744 17.7948 6.73829 19.7466C4.03915 21.6983 2.02718 24.4509 0.989654 27.6113C-0.0478694 30.7717 -0.0578968 34.1783 0.961003 37.3448C1.9799 40.5112 3.97563 43.2755 6.66324 45.2431C9.37631 43.2565 12.654 42.1854 16.0194 42.1854C19.3849 42.1854 22.6626 43.2565 25.3756 45.2431C28.0632 43.2755 30.059 40.5112 31.0779 37.3448C32.0968 34.1783 32.0867 30.7717 31.0492 27.6113C30.0117 24.4509 27.9997 21.6983 25.3006 19.7466C22.6014 17.7948 19.3531 16.7436 16.0194 16.7432V16.7432Z" fill="#FF6024"/>
</g>
<path d="M136.977 31.6764C139.337 30.4618 140.575 28.1906 140.575 25.4495C140.575 21.1428 137.518 17.7368 132.568 17.7368C127.344 17.7368 124.481 21.5365 124.366 26.1942H128.272C128.313 23.609 129.667 21.3006 132.492 21.3006C135.006 21.3006 136.671 23.1002 136.671 25.5275C136.671 27.9547 135.006 29.836 132.414 29.836H131.05V33.5168C134.841 33.5168 137.162 35.2402 137.162 38.843C137.162 42.639 134.61 44.0894 132.135 44.0894C129.232 44.0894 127.298 42.1302 127.105 38.843H123.16C123.355 43.9334 126.874 47.7294 132.175 47.7294C137.359 47.7294 141.267 44.0894 141.267 38.6462C141.267 35.6302 140.067 33.086 136.971 31.6764M159.003 38.2543C159.003 41.4653 156.528 44.1284 153.315 44.1284C152.542 44.1423 151.773 44.0001 151.055 43.7102C150.336 43.4203 149.682 42.9884 149.13 42.4397C148.578 41.8911 148.14 41.2367 147.841 40.5147C147.542 39.7928 147.388 39.0177 147.388 38.2348C147.388 37.452 147.542 36.6769 147.841 35.955C148.14 35.233 148.578 34.5786 149.13 34.03C149.682 33.4813 150.336 33.0494 151.055 32.7595C151.773 32.4695 152.542 32.3274 153.315 32.3412C156.526 32.3412 159.003 35.0044 159.003 38.2543ZM162.756 38.2933C162.756 33.164 158.695 28.8573 153.858 28.8573C152.994 28.8483 152.137 29.0216 151.342 29.3661L157.069 18.2457H152.776L145.662 31.9178C144.307 34.5011 143.728 36.5365 143.728 38.4178C143.728 43.5843 148.06 47.735 153.284 47.735C158.583 47.735 162.761 43.5063 162.761 38.2989M169.053 32.8167C169.053 26.6696 173.734 21.4232 180.04 21.4232V17.7368C171.53 17.7368 165.106 24.5098 165.106 32.7795C165.106 41.2369 171.838 47.7368 180.079 47.7368C188.396 47.7368 195.013 41.1199 195.013 32.7424L191.066 32.7795C191.066 39.0455 186.268 44.0969 180.079 44.0969C173.928 44.0969 169.053 39.0826 169.053 32.8185M183.743 29.862H191.331V27.7913H185.862V24.5655H190.165V22.5022H185.862V19.8001H191.331V17.7368H183.743V29.862ZM204.16 17.7368H201.83L198.344 27.1859L194.857 17.7368H192.527L197.235 29.8546H199.452L204.16 17.7368Z" fill="#FF6024"/>
<defs>
<clipPath id="clip0_12984_1919">
<rect width="105.956" height="31.9869" fill="white" transform="translate(0.204102 16.7432)"/>
</clipPath>
</defs>
</svg>
