<svg width="25" height="22" viewBox="0 0 25 22" fill="none" xmlns="http://www.w3.org/2000/svg">
<path fill-rule="evenodd" clip-rule="evenodd" d="M17.6342 2.25237C16.587 2.27319 14.8761 2.81197 14.222 4.42284C14.0907 4.74634 13.7535 4.93641 13.4087 4.88127C9.59379 4.27112 7.36179 4.66238 5.97549 5.38602C4.60657 6.10058 3.93856 7.20124 3.38375 8.34765C2.67862 9.80468 2.52614 11.7446 2.73703 13.8C2.9464 15.8407 3.50499 17.9091 4.13299 19.5593C4.1414 19.5814 4.16825 19.609 4.21716 19.609H7.35874C7.41787 19.609 7.46588 19.561 7.46588 19.5018V17.6422C7.46588 17.228 7.80167 16.8922 8.21588 16.8922H13.8373C14.2515 16.8922 14.5873 17.228 14.5873 17.6422V19.5018C14.5873 19.561 14.6353 19.609 14.6945 19.609H17.527C17.5862 19.609 17.6342 19.5609 17.6342 19.5018V17.6422C17.6342 17.3186 17.8417 17.0315 18.149 16.93C20.0385 16.3061 21.8565 15.2892 22.9865 14.0732V11.8053L20.6365 10.4838C20.4003 10.351 20.2541 10.1011 20.2541 9.83007C20.2541 8.81447 20.0484 8.05145 19.6917 7.45507C19.3354 6.85943 18.7947 6.37353 18.0315 5.9668C17.7869 5.83649 17.6342 5.58199 17.6342 5.30492V2.25237ZM13.092 3.3167C14.2502 1.24519 16.6026 0.715947 17.8335 0.753815C18.7146 0.7809 19.1342 1.55859 19.1342 2.18024V4.87045C19.8998 5.34135 20.5285 5.93188 20.979 6.68505C21.4397 7.45534 21.6882 8.35234 21.7426 9.38492L24.1041 10.7129C24.3403 10.8457 24.4865 11.0956 24.4865 11.3666V14.3583C24.4865 14.5365 24.4231 14.7088 24.3077 14.8445C23.0632 16.3066 21.1062 17.4507 19.1342 18.1749V19.5018C19.1342 20.3894 18.4146 21.109 17.527 21.109H14.6945C13.8068 21.109 13.0873 20.3893 13.0873 19.5018V18.3922H8.96588V19.5018C8.96588 20.3893 8.24638 21.109 7.35874 21.109H4.21716C3.57116 21.109 2.96986 20.7203 2.73108 20.0928C2.06533 18.3435 1.46991 16.1465 1.24487 13.9531C1.02134 11.7745 1.15405 9.51156 2.03356 7.69422C2.20466 7.34066 2.39625 6.96827 2.62502 6.59472C1.86994 5.92519 1.16242 5.04403 0.748272 3.92857C0.6041 3.54026 0.802015 3.10859 1.19033 2.96442C1.57864 2.82025 2.01031 3.01816 2.15448 3.40648C2.44876 4.19908 2.95215 4.8588 3.529 5.39008C3.98978 4.89413 4.55873 4.43349 5.28137 4.05628C6.98449 3.16726 9.42655 2.79942 13.092 3.3167ZM8.23632 7.33382C8.23632 6.9196 8.5721 6.58382 8.98632 6.58382H12.1663C12.5805 6.58382 12.9163 6.9196 12.9163 7.33382C12.9163 7.74803 12.5805 8.08382 12.1663 8.08382H8.98632C8.5721 8.08382 8.23632 7.74803 8.23632 7.33382ZM17.4514 9.80124C17.629 9.80124 17.7729 9.65731 17.7729 9.47981C17.7729 9.3023 17.629 9.15838 17.4514 9.15838C17.2739 9.15838 17.13 9.30229 17.13 9.47981C17.13 9.65733 17.2739 9.80124 17.4514 9.80124ZM16.2729 9.47981C16.2729 8.82892 16.8005 8.30124 17.4514 8.30124C18.1024 8.30124 18.63 8.82891 18.63 9.47981C18.63 10.1307 18.1024 10.6584 17.4514 10.6584C16.8005 10.6584 16.2729 10.1307 16.2729 9.47981Z" fill="#FF9F00"/>
</svg>
