<svg width="34" height="33" viewBox="0 0 34 33" fill="none" xmlns="http://www.w3.org/2000/svg">
<path d="M17 0.5C13.7861 0.5 10.6443 1.45305 7.97199 3.23862C5.29969 5.02419 3.21689 7.56209 1.98696 10.5314C0.757041 13.5007 0.435237 16.768 1.06225 19.9202C1.68926 23.0724 3.23692 25.9679 5.50952 28.2405C7.78213 30.5131 10.6776 32.0607 13.8298 32.6878C16.982 33.3148 20.2493 32.993 23.2186 31.763C26.1879 30.5331 28.7258 28.4503 30.5114 25.778C32.297 23.1057 33.25 19.9639 33.25 16.75C33.2455 12.4416 31.5319 8.31102 28.4855 5.26454C25.439 2.21806 21.3084 0.50455 17 0.5ZM17 30.5C14.2805 30.5 11.6221 29.6936 9.36092 28.1827C7.09974 26.6718 5.33737 24.5244 4.29666 22.0119C3.25596 19.4994 2.98366 16.7347 3.51421 14.0675C4.04476 11.4003 5.35432 8.95025 7.27729 7.02728C9.20026 5.10431 11.6503 3.79475 14.3175 3.2642C16.9848 2.73366 19.7494 3.00595 22.2619 4.04666C24.7744 5.08736 26.9218 6.84973 28.4327 9.11091C29.9436 11.3721 30.75 14.0305 30.75 16.75C30.7459 20.3955 29.2959 23.8904 26.7182 26.4682C24.1404 29.0459 20.6455 30.4959 17 30.5ZM24.5 16.75C24.5 17.0815 24.3683 17.3995 24.1339 17.6339C23.8995 17.8683 23.5815 18 23.25 18H18.25V23C18.25 23.3315 18.1183 23.6495 17.8839 23.8839C17.6495 24.1183 17.3315 24.25 17 24.25C16.6685 24.25 16.3505 24.1183 16.1161 23.8839C15.8817 23.6495 15.75 23.3315 15.75 23V18H10.75C10.4185 18 10.1005 17.8683 9.86612 17.6339C9.6317 17.3995 9.50001 17.0815 9.50001 16.75C9.50001 16.4185 9.6317 16.1005 9.86612 15.8661C10.1005 15.6317 10.4185 15.5 10.75 15.5H15.75V10.5C15.75 10.1685 15.8817 9.85054 16.1161 9.61612C16.3505 9.3817 16.6685 9.25 17 9.25C17.3315 9.25 17.6495 9.3817 17.8839 9.61612C18.1183 9.85054 18.25 10.1685 18.25 10.5V15.5H23.25C23.5815 15.5 23.8995 15.6317 24.1339 15.8661C24.3683 16.1005 24.5 16.4185 24.5 16.75Z" fill="#ABABAB"/>
</svg>
