<svg width="21" height="17" viewBox="0 0 21 17" fill="none" xmlns="http://www.w3.org/2000/svg">
<path d="M18.4837 5.33195L16.5938 1.76195C16.3937 1.17195 15.7537 0.751953 15.0938 0.751953H4.59375C3.93375 0.751953 3.55375 1.17195 3.34375 1.76195L1.64375 5.36195C0.89375 5.66195 0.09375 6.57195 0.09375 7.25195V15.752C0.09375 16.302 0.54375 16.752 1.09375 16.752H2.09375C2.64375 16.752 3.09375 16.302 3.09375 15.752V14.752H17.0938V15.752C17.0938 16.302 17.5438 16.752 18.0938 16.752H19.0938C19.6437 16.752 20.0938 16.302 20.0938 15.752V7.25195C20.0938 6.54195 19.2437 5.60195 18.4837 5.33195ZM5.09375 2.75195H15.0938L16.3438 5.25195H3.84375L5.09375 2.75195ZM18.0938 8.78195C17.8137 8.71195 17.1838 8.83195 16.2337 9.28195C16.0737 9.36195 15.6038 9.61195 15.2537 9.85195C14.7837 10.172 14.1438 10.742 14.0938 10.942C14.0938 10.962 14.0938 10.982 14.0938 11.002C14.0938 11.222 14.6737 11.262 15.0837 11.262C15.2437 11.262 15.5837 11.232 16.4338 11.152C17.1038 11.082 17.5438 11.032 17.7838 10.952C17.8638 10.932 17.9737 10.872 18.0837 10.792V12.752H2.09375V10.792C2.20375 10.862 2.31375 10.932 2.39375 10.952C2.63375 11.032 3.07375 11.072 3.74375 11.152C4.59375 11.222 4.94375 11.262 5.09375 11.262C5.50375 11.262 6.08375 11.222 6.08375 11.002C6.08375 10.982 6.08375 10.962 6.08375 10.942C6.03375 10.742 5.40375 10.172 4.92375 9.85195C4.57375 9.62195 4.10375 9.36195 3.94375 9.28195C2.99375 8.82195 2.36375 8.71195 2.08375 8.78195V6.75195H18.0938V8.78195ZM8.51375 9.19195C7.43375 9.11195 6.30375 8.96195 5.09375 8.75195C6.82375 8.41195 8.42375 8.25195 10.0938 8.25195C11.7638 8.25195 13.3638 8.41195 15.0938 8.75195C13.8737 8.96195 12.7537 9.11195 11.6737 9.19195C11.5538 9.19195 11.4637 9.23195 11.3538 9.27195C11.2438 9.31195 11.1438 9.36195 11.0538 9.45195C10.7937 9.71195 10.5538 10.032 10.3438 10.252C10.2537 10.352 10.1737 10.402 10.0938 10.402C10.0138 10.402 9.93375 10.352 9.84375 10.252C9.63375 10.032 9.39375 9.71195 9.13375 9.45195C9.04375 9.36195 8.94375 9.31195 8.83375 9.27195C8.72375 9.23195 8.63375 9.20195 8.51375 9.19195Z" fill="#FF9F00"/>
</svg>
