<svg width="25" height="24" viewBox="0 0 25 24" fill="none" xmlns="http://www.w3.org/2000/svg">
<g clip-path="url(#clip0_12970_13126)">
<path fill-rule="evenodd" clip-rule="evenodd" d="M0.606934 14.5714C0.606934 8.0032 5.93155 2.67859 12.4998 2.67859C19.0681 2.67859 24.3926 8.00321 24.3926 14.5714C24.3926 16.9281 23.7064 19.1268 22.5226 20.9758C22.3848 21.1912 22.1467 21.3214 21.891 21.3214H12.5121C12.5034 21.3216 12.4947 21.3216 12.486 21.3214H3.10862C2.85293 21.3214 2.61485 21.1912 2.47699 20.9758C1.29317 19.1268 0.606934 16.9281 0.606934 14.5714ZM13.8244 19.8214L18.2858 12.3859C18.4989 12.0307 18.3837 11.57 18.0285 11.3569C17.6733 11.1438 17.2126 11.259 16.9995 11.6141L12.0751 19.8214H3.52838C2.62495 18.2812 2.10693 16.4878 2.10693 14.5714C2.10693 8.83163 6.75998 4.17859 12.4998 4.17859C18.2397 4.17859 22.8926 8.83163 22.8926 14.5714C22.8926 16.4878 22.3746 18.2812 21.4712 19.8214H13.8244Z" fill="#FF9F00"/>
</g>
<defs>
<clipPath id="clip0_12970_13126">
<rect width="24" height="24" fill="white" transform="translate(0.5)"/>
</clipPath>
</defs>
</svg>
