<svg width="22" height="24" viewBox="0 0 22 24" fill="none" xmlns="http://www.w3.org/2000/svg">
<path fill-rule="evenodd" clip-rule="evenodd" d="M0.830078 2.56999C0.830078 1.21863 1.92301 0.109985 3.29008 0.109985H18.7301C20.0814 0.109985 21.1901 1.20292 21.1901 2.56999V23.14C21.1901 23.424 21.0296 23.6837 20.7756 23.8107C20.5216 23.9378 20.2177 23.9105 19.9904 23.7402L17.0415 21.5307L14.498 23.7096C14.2172 23.9501 13.803 23.9501 13.5221 23.7096L11.0101 21.5576L8.49802 23.7096C8.2172 23.9501 7.80296 23.9501 7.52214 23.7096L4.97869 21.5307L2.0298 23.7402C1.80251 23.9105 1.49851 23.9378 1.24451 23.8107C0.990509 23.6837 0.830078 23.424 0.830078 23.14V2.56999ZM3.29008 1.60999C2.75715 1.60999 2.33008 2.04134 2.33008 2.56999V21.6409L4.56036 19.9698C4.84151 19.7591 5.23121 19.7718 5.49802 20.0004L8.01008 22.1524L10.5221 20.0004C10.803 19.7598 11.2172 19.7598 11.498 20.0004L14.0101 22.1524L16.5221 20.0004C16.7889 19.7718 17.1786 19.7591 17.4598 19.9698L19.6901 21.6409V2.56999C19.6901 2.03705 19.2587 1.60999 18.7301 1.60999H3.29008ZM11.0001 4.39999C11.4143 4.39999 11.7501 4.73577 11.7501 5.14999V6.42112C12.5384 6.44343 13.2337 6.79446 13.7209 7.33092C13.9819 7.60856 14.1588 7.93102 14.2757 8.25595C14.416 8.64567 14.2138 9.07535 13.8241 9.21565C13.4344 9.35595 13.0047 9.15375 12.8644 8.76402C12.8023 8.59159 12.7212 8.45664 12.6256 8.35579L12.6133 8.34246C12.3771 8.08077 12.0456 7.91999 11.6701 7.91999H10.1101C9.53158 7.91999 9.06008 8.38691 9.06008 8.96999C9.06008 9.45604 9.40327 9.88255 9.88081 9.98741C9.88079 9.98741 9.88084 9.98742 9.88081 9.98741L12.2494 10.5071C12.2491 10.507 12.2497 10.5072 12.2494 10.5071C13.5161 10.7829 14.4201 11.9099 14.4201 13.21C14.4201 14.7041 13.2326 15.921 11.7501 15.9685V17.22C11.7501 17.6342 11.4143 17.97 11.0001 17.97C10.5859 17.97 10.2501 17.6342 10.2501 17.22V15.9691C9.07152 15.94 8.08925 15.1782 7.71418 14.1334C7.57423 13.7435 7.77682 13.314 8.16668 13.1741C8.55654 13.0341 8.98603 13.2367 9.12597 13.6266C9.30351 14.1212 9.76963 14.47 10.3201 14.47H10.8773C10.9173 14.4634 10.9583 14.46 11.0001 14.46C11.0419 14.46 11.0829 14.4634 11.1229 14.47H11.6601C12.3559 14.47 12.9201 13.9058 12.9201 13.21C12.9201 12.6104 12.5036 12.0974 11.9308 11.9729L11.9293 11.9726L9.55935 11.4526C8.39693 11.1974 7.56008 10.1639 7.56008 8.96999C7.56008 7.55306 8.70858 6.41999 10.1101 6.41999H10.2501V5.14999C10.2501 4.73577 10.5859 4.39999 11.0001 4.39999Z" fill="#FF9F00"/>
</svg>
